<?xml version="1.0" encoding="utf-8"?>
<!-- Generator: Adobe Illustrator 22.1.0, SVG Export Plug-In . SVG Version: 6.00 Build 0)  -->
<svg version="1.1" id="Layer_1" xmlns="http://www.w3.org/2000/svg" xmlns:xlink="http://www.w3.org/1999/xlink" x="0px" y="0px"
	 viewBox="0 0 575.8 184.9" style="enable-background:new 0 0 575.8 184.9;" xml:space="preserve">
<style type="text/css">
	.st0{fill:#662481;}
	.st1{fill:#EF7918;}
	.st2{fill:#D14A95;}
	.st3{clip-path:url(#SVGID_2_);fill:#D13A84;}
	.st4{clip-path:url(#SVGID_4_);fill:#8E408A;}
	.st5{fill:#854C98;}
	.st6{fill:#CC0935;}
	.st7{fill:#72217B;}
</style>
<g>
	<g>
		<path class="st0" d="M192.8,156.3c-1.3,3.7-4.5,5.9-8.5,5.9c-5.4,0-9.3-4-9.3-9.5c0-5.5,3.9-9.5,9.3-9.5c3.9,0,7,2.1,8.3,5.5
			l0,0.1h2.6l0-0.2c-1.4-4.9-5.6-8-10.9-8c-6.9,0-11.9,5.1-11.9,12c0,7,5,12,11.9,12c5.4,0,9.7-3.2,11.1-8.3l0-0.2L192.8,156.3
			L192.8,156.3z"/>
		<path class="st0" d="M206.7,145.9c-2.6,0-4.8,1.1-6.2,3V140H198v24.4h2.5v-10c0-3.3,2.6-6.1,5.7-6.1c3.2,0,5.1,2.1,5.1,5.9v10.2
			h2.5v-10.7C213.8,148.8,211.1,145.9,206.7,145.9"/>
		<path class="st0" d="M232.9,149.3c-1.7-2.2-4.3-3.4-7.3-3.4c-5.3,0-9.3,4-9.3,9.4s4,9.4,9.3,9.4c2.9,0,5.5-1.2,7.2-3.4l0.2,3h2.1
			v-18h-2L232.9,149.3z M225.8,162.3c-3.9,0-6.9-3-6.9-7c0-4,3-7,6.9-7c4,0,6.9,2.9,6.9,7S229.8,162.3,225.8,162.3"/>
		<path class="st0" d="M259.2,145.9c-2.6,0-4.8,1.3-6.1,3.5c-1-2.2-3-3.5-5.5-3.5c-2.3,0-4.4,1.1-5.8,2.9l-0.3-2.5h-1.9v18h2.5
			v-10.2c0-3.4,2.2-5.9,5-5.9c2.7,0,4.3,2,4.3,5.3v10.8h2.4v-10.2c0-3.4,2.2-5.9,5-5.9c2.6,0,4.2,2,4.2,5.3l0,10.8h2.5v-11.4
			C265.5,148.7,263,145.9,259.2,145.9"/>
		<path class="st0" d="M279.1,145.9c-2.9,0-5.5,1.2-7.2,3.4l-0.4-3h-1.8v24.4h2.5v-9.1c1.7,2,4.2,3.1,7,3.1c5.3,0,9.2-3.9,9.2-9.4
			C288.3,149.9,284.5,145.9,279.1,145.9 M278.9,148.3c4,0,6.9,2.9,6.9,7s-2.9,7-6.9,7c-3.9,0-6.9-3-6.9-7
			C272,151.3,275,148.3,278.9,148.3"/>
		<rect x="291.1" y="140.1" class="st0" width="2.8" height="3"/>
		<rect x="291.3" y="146.3" class="st0" width="2.5" height="18"/>
		<path class="st0" d="M306.2,145.9c-5.4,0-9.5,4-9.5,9.4s4.1,9.4,9.5,9.4c5.4,0,9.5-4,9.5-9.4S311.6,145.9,306.2,145.9
			 M306.2,162.3c-4,0-7-2.9-7-7s2.9-7,7-7c4,0,7,2.9,7,7S310.2,162.3,306.2,162.3"/>
		<path class="st0" d="M327.3,145.9c-2.7,0-5.1,1.2-6.5,3.3l-0.4-2.9h-1.8v18h2.5v-10c0-3.3,2.6-6.1,5.7-6.1c3.2,0,5.1,2.1,5.1,5.9
			v10.2h2.5v-10.7C334.3,149,331.5,145.9,327.3,145.9"/>
		<polygon class="st0" points="348.8,141 346.3,141 346.3,164.3 359.3,164.3 359.3,161.9 348.8,161.9 		"/>
		<rect x="361.3" y="140.1" class="st0" width="2.8" height="3"/>
		<rect x="361.4" y="146.3" class="st0" width="2.5" height="18"/>
		<path class="st0" d="M371.9,145.1c0-2.8,1-3.8,3.8-3.8h2v-2.1h-2.4c-4,0-5.8,1.8-5.8,5.8v1.3h-3.6v2.1h3.6v15.8h2.5v-15.8h5.7
			v-2.1h-5.8V145.1z"/>
		<path class="st0" d="M387.2,145.9c-5.2,0-9.1,4-9.1,9.4c0,5.4,3.9,9.4,9.1,9.4c3.8,0,6.9-2.1,8.5-5.8l0.1-0.2h-2.6l0,0.1
			c-1.2,2.2-3.4,3.4-5.9,3.4c-3.6,0-6.2-2.4-6.6-6h15.6l0-0.1c0-0.3,0-0.6,0-0.8C396.2,149.9,392.4,145.9,387.2,145.9 M387.2,148.3
			c3.4,0,6,2.2,6.5,5.7h-13.1C381.1,150.5,383.8,148.3,387.2,148.3"/>
		<path class="st0" d="M311.5,113.4c0-0.1,0-0.3-0.1-0.4c-0.1-0.1-0.2-0.2-0.4-0.2h-3.9c-0.2,0-0.4,0.1-0.5,0.3
			c-2.2,6.1-7.5,9.8-14.2,9.8c-9.2,0-15.6-6.5-15.6-15.9c0-9.2,6.6-15.9,15.6-15.9c6.6,0,11.8,3.4,14,9.2c0.1,0.2,0.3,0.3,0.5,0.3
			h3.9c0.2,0,0.3-0.1,0.4-0.2c0.1-0.1,0.1-0.3,0.1-0.4c-2.5-8.4-9.7-13.6-18.8-13.6c-11.9,0-20.5,8.7-20.5,20.7
			c0,11.9,8.6,20.6,20.5,20.6C301.7,127.7,309,122.2,311.5,113.4"/>
		<path class="st0" d="M345.6,96.5c0-0.3-0.2-0.5-0.5-0.5h-3c-0.3,0-0.5,0.2-0.5,0.5l-0.4,4.3c-2.9-3.4-7.3-5.4-12.2-5.4
			c-9.1,0-16,7-16,16.2c0,9.2,6.9,16.2,16,16.2c4.8,0,9.2-1.9,12.1-5.4l0.3,4.3c0,0.3,0.2,0.5,0.5,0.5h3.1c0.3,0,0.5-0.2,0.5-0.5
			V96.5z M340.8,111.5c0,6.7-4.8,11.6-11.5,11.6c-6.6,0-11.5-5-11.5-11.6c0-6.6,5-11.6,11.5-11.6C336,99.9,340.8,104.8,340.8,111.5"
			/>
		<path class="st0" d="M366.4,96.3c0-0.3-0.2-0.5-0.5-0.5h-2.6c-4.1,0-7.4,1.6-9.7,4.6l-0.6-4.4H350c-0.3,0-0.5,0.2-0.5,0.5v30.1
			c0,0.3,0.2,0.5,0.5,0.5h3.7c0.3,0,0.5-0.2,0.5-0.5V110c0-6,3.4-9.7,8.8-9.7h2.9c0.3,0,0.5-0.2,0.5-0.5V96.3z"/>
		<path class="st0" d="M380.6,95.3c-9,0-15.8,7-15.8,16.2c0,9.2,6.8,16.2,15.8,16.2c6.6,0,11.9-3.6,14.6-9.8c0.1-0.2,0.1-0.3,0-0.5
			c-0.1-0.1-0.2-0.2-0.4-0.2h-3.9c-0.2,0-0.3,0.1-0.4,0.3c-2,3.6-5.6,5.7-9.8,5.7c-5.9,0-10.3-3.9-11-9.7h26.1
			c0.2,0,0.4-0.2,0.4-0.4c0-0.5,0.1-1,0.1-1.4C396.2,102.2,389.6,95.3,380.6,95.3 M369.6,109c1-5.5,5.3-9.2,10.9-9.2
			c5.6,0,9.8,3.6,10.8,9.2H369.6z"/>
		<path class="st0" d="M65.5,96.7c0-0.4-0.3-0.7-0.7-0.7l-5.2,0c-0.5,0-1,0.4-1.2,0.9l-0.5,1.7c-2.7-2.2-6.1-3.4-9.7-3.4
			c-9.3,0-16.3,7-16.3,16.4c0,9.4,7,16.5,16.3,16.5c3.6,0,6.9-1.1,9.5-3.3l0.5,1.8c0.1,0.3,0.4,0.6,0.7,0.6h5.9
			c0.4,0,0.7-0.3,0.7-0.7V96.7z M48.9,119.3c-4.5,0-7.8-3.3-7.8-7.9c0-4.5,3.3-7.8,7.8-7.8c4.5,0,7.8,3.3,7.8,7.8
			C56.7,116,53.4,119.3,48.9,119.3"/>
		<path class="st0" d="M152.7,95.3c-3.7,0-7.1,1.7-9.3,4.5c-1.9-2.9-5.1-4.5-8.8-4.5c-3.3,0-6.6,1.5-8.9,4.1l-1.1-2.6
			c-0.2-0.5-0.6-0.8-1.1-0.8h-4.9c-0.4,0-0.7,0.3-0.7,0.7v29.6c0,0.4,0.3,0.7,0.7,0.7h7.6c0.4,0,0.7-0.3,0.7-0.7v-16
			c0-4.4,2-7,5.5-7c2.7,0,4,1.9,4,5.7v17.3c0,0.4,0.3,0.7,0.7,0.7h7.4c0.4,0,0.7-0.3,0.7-0.7v-16c0-4.4,2-7,5.4-7
			c2.7,0,4.1,1.9,4.1,5.7v17.3c0,0.4,0.3,0.7,0.7,0.7h7.6c0.4,0,0.7-0.3,0.7-0.7v-18.7C163.7,100.4,159.2,95.3,152.7,95.3"/>
		<path class="st0" d="M104,95.3c-3.7,0-7.1,1.7-9.3,4.5c-1.9-2.9-5.1-4.5-8.8-4.5c-3.3,0-6.6,1.5-8.9,4.1l-1.1-2.6
			c-0.2-0.5-0.6-0.8-1.1-0.8h-4.9c-0.4,0-0.7,0.3-0.7,0.7v29.6c0,0.4,0.3,0.7,0.7,0.7h7.6c0.4,0,0.7-0.3,0.7-0.7v-16
			c0-4.4,2-7,5.5-7c2.7,0,4,1.9,4,5.7v17.3c0,0.4,0.3,0.7,0.7,0.7h7.4c0.4,0,0.7-0.3,0.7-0.7v-16c0-4.4,2-7,5.4-7
			c2.7,0,4.1,1.9,4.1,5.7v17.3c0,0.4,0.3,0.7,0.7,0.7h7.6c0.4,0,0.7-0.3,0.7-0.7v-18.7C115.1,100.4,110.5,95.3,104,95.3"/>
		<path class="st0" d="M182.3,95.1c-9.6,0-16.8,7.1-16.8,16.4c0,9.4,7.2,16.4,16.8,16.4c9.6,0,16.8-7.1,16.8-16.4
			C199.1,102.2,191.9,95.1,182.3,95.1 M182.3,119.4c-4.5,0-7.6-3.2-7.6-7.8c0-4.6,3.1-7.8,7.6-7.8c4.5,0,7.6,3.2,7.6,7.8
			C189.9,116.2,186.8,119.4,182.3,119.4"/>
		<path class="st0" d="M209.8,110.8c0-4.7,2.4-7.4,6.3-7.4c3.3,0,4.8,2,4.8,6.3v16.7c0,0.4,0.3,0.7,0.7,0.7h7.6
			c0.4,0,0.7-0.3,0.7-0.7v-18c0-7.9-4.6-13.1-11.6-13.1c-3.9,0-7.4,1.5-9.9,4.1l-1.1-2.6c-0.2-0.5-0.6-0.8-1.1-0.8h-4.8
			c-0.4,0-0.7,0.3-0.7,0.7v29.6c0,0.4,0.3,0.7,0.7,0.7h7.6c0.4,0,0.7-0.3,0.7-0.7V110.8z"/>
		<path class="st0" d="M247.5,128c3.5,0,6.7-1.1,9.3-3.1l0.7,1.8c0.1,0.3,0.4,0.5,0.7,0.5h5.5c0.4,0,0.7-0.3,0.7-0.7V85.8
			c0-0.4-0.3-0.7-0.7-0.7l-7.6,0c-0.2,0-0.4,0.1-0.5,0.2c-0.1,0.1-0.2,0.3-0.2,0.5v11.4c-2.3-1.4-5-2.1-7.9-2.1
			c-9.3,0-16.3,7.1-16.3,16.4C231.2,120.9,238.2,128,247.5,128 M248.2,119.4c-4.5,0-7.8-3.3-7.8-7.8c0-4.5,3.3-7.9,7.8-7.9
			c4.5,0,7.8,3.3,7.8,7.9C256,116,252.7,119.4,248.2,119.4"/>
		<path class="st0" d="M29.9,91.4c0-0.4-0.3-0.7-0.7-0.7H22c-0.4,0-0.7,0.3-0.7,0.7v13.1H8.6V91.4c0-0.4-0.3-0.7-0.7-0.7H0.7
			C0.3,90.7,0,91,0,91.4v35.3c0,0.4,0.3,0.7,0.7,0.7h7.2c0.4,0,0.7-0.3,0.7-0.7v-14.1h12.6v14.1c0,0.4,0.3,0.7,0.7,0.7h7.1
			c0.4,0,0.7-0.3,0.7-0.7V91.4z"/>
		<path class="st1" d="M433,143.1c2.4-3,5.8-4.6,9.3-5c0.6-0.1,1.1-0.4,1.4-0.9c2.3-3.8,11.8-20.1,16.1-32.3
			c0.9-4.9,1.9-10.4,3.1-16.6c0.6-2.3,3.7-15.1,6-30.1c5.4-35.3,0.4-46.6-1.3-50.4c-3-6.8-11-9.9-17.8-6.9c-6.8,3-9.9,11-6.9,17.8
			c3.7,8.4-0.2,39.5-6.2,63.2l-0.2,0.7c-4.9,24.7-7.7,43.3-8.3,55.4c-0.5,10.4,0.3,18.3,5.9,23.2c1.1,0.9,2.2,1.7,3.5,2.3
			c-0.8-0.5-1.6-1-2.4-1.6C429.3,157.4,428.3,148.9,433,143.1 M439.3,138.8L439.3,138.8L439.3,138.8z"/>
		<path class="st2" d="M496.2,90c-4.3-2.4-7.2-7.1-7-12.4c0.3-7.4,6.6-13.2,14-12.9c1.1,0,3.8,0.3,6.9,1.8c-0.7-0.4-1.5-0.8-2.3-1.1
			c-4.7-1.9-12.7-2.5-20.9,1.4c-11.4,5.4-20.4,17.7-26.7,36.6l0,0.1c-0.2,0.5-0.3,1-0.5,1.5c-4.4,24.5-4.9,35-4.8,39
			c0,0.3,0.1,0.5,0.2,0.7c0.5,0.8,0.9,1.7,1.2,2.6c2.3,7.1-1.5,14.7-8.6,17c-1.4,0.5-2.8,0.7-4.3,0.7c-2.1,0-4.1-0.5-6-1.3
			c2.9,1.7,6.1,2.6,9.3,2.6c1.8,0,3.6-0.3,5.4-0.8c9.3-2.8,16.8-12.1,25.2-31.3c4.8-10.9,8.2-21.3,8.5-22.4
			c4.1-12.2,8.4-17.6,11.1-19.7c0-0.5-0.1-0.8-0.1-1.2C496.8,90.5,496.6,90.2,496.2,90"/>
		<path class="st2" d="M532.5,138.8c-7-2.6-14.8,0.9-17.4,7.8c-0.2,0.6-0.7,1.3-1.4,2.1c-0.9,5.2-1.1,8.6-1.1,10.7
			c0,0.4,0.2,0.7,0.5,0.9c2.6,1.9,4.5,4.7,5.2,8.1c1.4,6.7-2.5,13.3-8.9,15.5c4.8-1.3,10.1-4.4,15.8-9c4.3-3.5,11.9-10.6,15-18.8
			C543,149.3,539.4,141.5,532.5,138.8"/>
		<g>
			<g>
				<defs>
					<rect id="SVGID_1_" x="496.2" y="182.6" width="9.2" height="2.3"/>
				</defs>
				<clipPath id="SVGID_2_">
					<use xlink:href="#SVGID_1_"  style="overflow:visible;"/>
				</clipPath>
				<path class="st3" d="M496.2,182.6c2,1.4,4.5,2.2,7.1,2.3c0.2,0,0.4,0,0.6,0c0.5,0,1,0,1.5-0.1c-0.2,0-0.5,0-0.7,0
					C502.1,184.8,499.1,184.2,496.2,182.6"/>
			</g>
		</g>
		<g>
			<g>
				<defs>
					<rect id="SVGID_3_" x="505.4" y="184.1" width="4" height="0.7"/>
				</defs>
				<clipPath id="SVGID_4_">
					<use xlink:href="#SVGID_3_"  style="overflow:visible;"/>
				</clipPath>
				<path class="st4" d="M507.8,184.5c0.6-0.1,1.1-0.3,1.6-0.5c-1.4,0.4-2.7,0.6-4,0.7C506.3,184.8,507.1,184.7,507.8,184.5"/>
			</g>
		</g>
		<path class="st5" d="M490.3,170.9c0.2-6.8,5.5-12.3,12-13c0.1,0,0.3-0.1,0.4-0.1c3-1.4,8.3-5.9,10.9-9.1c0.8-4.9,2.3-11.4,4.7-20
			c7.7-27.2,7.7-44.8-0.1-55.5c-2.6-3.6-5.5-5.6-8.2-6.9c5.4,3.4,7.8,10.2,5.4,16.3c-2.5,6.4-9.3,9.8-15.8,8.2
			c-0.4-0.1-0.8-0.1-1.2,0.1c-0.4,0.2-0.9,0.5-1.5,1c0.4,4,0.1,12.7-4.6,29.4c-8.8,31.3-9,48.5-0.4,57.7c1.3,1.4,2.8,2.6,4.3,3.4
			C492.5,180,490.1,175.7,490.3,170.9 M502.2,91.7C502.2,91.7,502.2,91.7,502.2,91.7C502.2,91.7,502.2,91.7,502.2,91.7 M502.2,91.7
			L502.2,91.7L502.2,91.7z"/>
		<path class="st1" d="M575.8,151.3c0-7.4-6-13.4-13.4-13.4c-7.4,0-13.4,6-13.4,13.4c0,7.4,6,13.4,13.4,13.4
			C569.8,164.7,575.8,158.7,575.8,151.3"/>
		<path class="st6" d="M447.7,164.4c7.1-2.3,11-9.9,8.6-17c-0.3-0.9-0.7-1.8-1.2-2.6c-0.1-0.2-0.2-0.5-0.2-0.7
			c-0.1-4.1,0.4-14.5,4.8-39c-4.2,12.1-13.8,28.4-16.1,32.3c-0.3,0.5-0.8,0.8-1.4,0.9c-3.5,0.3-6.9,2-9.3,5c-4.7,5.8-3.8,14.3,2,19
			c0.8,0.6,1.6,1.2,2.4,1.6c1.9,0.9,3.9,1.3,6,1.3C444.9,165.1,446.3,164.9,447.7,164.4"/>
		<path class="st7" d="M499.7,91c6.5,1.6,13.3-1.8,15.8-8.2c2.4-6.1,0-13-5.4-16.3c-3.1-1.4-5.7-1.7-6.9-1.8
			c-7.5-0.3-13.7,5.5-14,12.9c-0.2,5.3,2.6,10,7,12.4c0.3,0.2,0.5,0.5,0.6,0.9c0.1,0.3,0.1,0.7,0.1,1.2c0.6-0.5,1.1-0.8,1.5-1
			C498.9,91,499.3,90.9,499.7,91"/>
		<path class="st7" d="M518.3,168.6c-0.7-3.4-2.6-6.2-5.2-8.1c-0.3-0.2-0.5-0.6-0.5-0.9c0-2.1,0.2-5.6,1.1-10.7
			c-2.6,3.2-7.9,7.7-10.9,9.1c-0.1,0.1-0.3,0.1-0.4,0.1c-6.6,0.7-11.8,6.2-12,13c-0.2,4.8,2.2,9.1,5.9,11.6c2.9,1.6,5.9,2.3,8.5,2.3
			c0.2,0,0.5,0,0.7,0c1.3-0.1,2.6-0.4,4-0.7C515.8,181.9,519.7,175.3,518.3,168.6 M502.4,158.1C502.4,158.1,502.4,158.1,502.4,158.1
			C502.4,158.1,502.4,158.1,502.4,158.1"/>
	</g>
</g>
</svg>
